<?xml version="1.0" encoding="UTF-8"?>
<svg xmlns="http://www.w3.org/2000/svg" xmlns:xlink="http://www.w3.org/1999/xlink" width="631" height="636" viewBox="0 0 631 636">
<defs>
<g>
<g id="glyph-0-0">
<path d="M 1.28125 -10.203125 L 4.640625 -10.203125 L 6.953125 -4.75 L 9.296875 -10.203125 L 12.640625 -10.203125 L 12.640625 0 L 10.15625 0 L 10.15625 -7.46875 L 7.796875 -1.96875 L 6.125 -1.96875 L 3.78125 -7.46875 L 3.78125 0 L 1.28125 0 Z M 1.28125 -10.203125 "/>
</g>
<g id="glyph-0-1">
<path d="M 4.609375 -3.453125 C 4.097656 -3.453125 3.710938 -3.363281 3.453125 -3.1875 C 3.191406 -3.007812 3.0625 -2.753906 3.0625 -2.421875 C 3.0625 -2.109375 3.164062 -1.863281 3.375 -1.6875 C 3.582031 -1.507812 3.875 -1.421875 4.25 -1.421875 C 4.707031 -1.421875 5.09375 -1.585938 5.40625 -1.921875 C 5.71875 -2.253906 5.875 -2.671875 5.875 -3.171875 L 5.875 -3.453125 Z M 8.34375 -4.375 L 8.34375 0 L 5.875 0 L 5.875 -1.140625 C 5.550781 -0.671875 5.179688 -0.328125 4.765625 -0.109375 C 4.359375 0.0976562 3.863281 0.203125 3.28125 0.203125 C 2.476562 0.203125 1.832031 -0.0234375 1.34375 -0.484375 C 0.851562 -0.953125 0.609375 -1.554688 0.609375 -2.296875 C 0.609375 -3.191406 0.914062 -3.847656 1.53125 -4.265625 C 2.144531 -4.691406 3.113281 -4.90625 4.4375 -4.90625 L 5.875 -4.90625 L 5.875 -5.09375 C 5.875 -5.476562 5.722656 -5.757812 5.421875 -5.9375 C 5.117188 -6.125 4.644531 -6.21875 4 -6.21875 C 3.46875 -6.21875 2.976562 -6.164062 2.53125 -6.0625 C 2.082031 -5.957031 1.660156 -5.796875 1.265625 -5.578125 L 1.265625 -7.453125 C 1.796875 -7.578125 2.320312 -7.671875 2.84375 -7.734375 C 3.375 -7.804688 3.90625 -7.84375 4.4375 -7.84375 C 5.820312 -7.84375 6.816406 -7.566406 7.421875 -7.015625 C 8.035156 -6.472656 8.34375 -5.59375 8.34375 -4.375 Z M 8.34375 -4.375 "/>
</g>
<g id="glyph-0-2">
<path d="M 1.171875 -7.65625 L 3.625 -7.65625 L 3.625 0 L 1.171875 0 Z M 1.171875 -10.640625 L 3.625 -10.640625 L 3.625 -8.640625 L 1.171875 -8.640625 Z M 1.171875 -10.640625 "/>
</g>
<g id="glyph-0-3">
<path d="M 8.875 -4.65625 L 8.875 0 L 6.40625 0 L 6.40625 -3.5625 C 6.40625 -4.226562 6.390625 -4.6875 6.359375 -4.9375 C 6.335938 -5.1875 6.289062 -5.367188 6.21875 -5.484375 C 6.125 -5.648438 5.992188 -5.773438 5.828125 -5.859375 C 5.660156 -5.953125 5.472656 -6 5.265625 -6 C 4.753906 -6 4.351562 -5.800781 4.0625 -5.40625 C 3.769531 -5.007812 3.625 -4.460938 3.625 -3.765625 L 3.625 0 L 1.171875 0 L 1.171875 -7.65625 L 3.625 -7.65625 L 3.625 -6.53125 C 3.988281 -6.976562 4.378906 -7.304688 4.796875 -7.515625 C 5.210938 -7.734375 5.671875 -7.84375 6.171875 -7.84375 C 7.054688 -7.84375 7.726562 -7.570312 8.1875 -7.03125 C 8.644531 -6.488281 8.875 -5.695312 8.875 -4.65625 Z M 8.875 -4.65625 "/>
</g>
<g id="glyph-0-4">
<path d="M 1.28125 -10.203125 L 5.65625 -10.203125 C 6.957031 -10.203125 7.953125 -9.914062 8.640625 -9.34375 C 9.335938 -8.769531 9.6875 -7.945312 9.6875 -6.875 C 9.6875 -5.800781 9.335938 -4.976562 8.640625 -4.40625 C 7.953125 -3.832031 6.957031 -3.546875 5.65625 -3.546875 L 3.921875 -3.546875 L 3.921875 0 L 1.28125 0 Z M 3.921875 -8.296875 L 3.921875 -5.453125 L 5.375 -5.453125 C 5.882812 -5.453125 6.273438 -5.570312 6.546875 -5.8125 C 6.828125 -6.0625 6.96875 -6.414062 6.96875 -6.875 C 6.96875 -7.332031 6.828125 -7.679688 6.546875 -7.921875 C 6.273438 -8.171875 5.882812 -8.296875 5.375 -8.296875 Z M 3.921875 -8.296875 "/>
</g>
<g id="glyph-0-5">
<path d="M 6.390625 -1.296875 C 6.046875 -0.847656 5.671875 -0.519531 5.265625 -0.3125 C 4.859375 -0.101562 4.390625 0 3.859375 0 C 2.929688 0 2.160156 -0.363281 1.546875 -1.09375 C 0.929688 -1.832031 0.625 -2.773438 0.625 -3.921875 C 0.625 -5.066406 0.929688 -6.003906 1.546875 -6.734375 C 2.160156 -7.460938 2.929688 -7.828125 3.859375 -7.828125 C 4.390625 -7.828125 4.859375 -7.722656 5.265625 -7.515625 C 5.671875 -7.304688 6.046875 -6.972656 6.390625 -6.515625 L 6.390625 -7.65625 L 8.84375 -7.65625 L 8.84375 -0.765625 C 8.84375 0.460938 8.453125 1.398438 7.671875 2.046875 C 6.898438 2.691406 5.773438 3.015625 4.296875 3.015625 C 3.816406 3.015625 3.351562 2.976562 2.90625 2.90625 C 2.46875 2.832031 2.019531 2.722656 1.5625 2.578125 L 1.5625 0.671875 C 1.988281 0.921875 2.40625 1.101562 2.8125 1.21875 C 3.226562 1.34375 3.644531 1.40625 4.0625 1.40625 C 4.863281 1.40625 5.453125 1.226562 5.828125 0.875 C 6.203125 0.519531 6.390625 -0.0234375 6.390625 -0.765625 Z M 4.765625 -6.0625 C 4.265625 -6.0625 3.875 -5.875 3.59375 -5.5 C 3.3125 -5.125 3.171875 -4.597656 3.171875 -3.921875 C 3.171875 -3.210938 3.304688 -2.675781 3.578125 -2.3125 C 3.847656 -1.957031 4.242188 -1.78125 4.765625 -1.78125 C 5.273438 -1.78125 5.671875 -1.96875 5.953125 -2.34375 C 6.242188 -2.71875 6.390625 -3.242188 6.390625 -3.921875 C 6.390625 -4.597656 6.242188 -5.125 5.953125 -5.5 C 5.671875 -5.875 5.273438 -6.0625 4.765625 -6.0625 Z M 4.765625 -6.0625 "/>
</g>
<g id="glyph-0-6">
<path d="M 8.8125 -3.84375 L 8.8125 -3.15625 L 3.09375 -3.15625 C 3.15625 -2.582031 3.363281 -2.148438 3.71875 -1.859375 C 4.070312 -1.566406 4.566406 -1.421875 5.203125 -1.421875 C 5.722656 -1.421875 6.253906 -1.5 6.796875 -1.65625 C 7.335938 -1.8125 7.890625 -2.046875 8.453125 -2.359375 L 8.453125 -0.46875 C 7.878906 -0.25 7.300781 -0.0820312 6.71875 0.03125 C 6.144531 0.144531 5.566406 0.203125 4.984375 0.203125 C 3.597656 0.203125 2.519531 -0.148438 1.75 -0.859375 C 0.988281 -1.566406 0.609375 -2.554688 0.609375 -3.828125 C 0.609375 -5.066406 0.984375 -6.046875 1.734375 -6.765625 C 2.484375 -7.484375 3.519531 -7.84375 4.84375 -7.84375 C 6.050781 -7.84375 7.015625 -7.476562 7.734375 -6.75 C 8.453125 -6.03125 8.8125 -5.0625 8.8125 -3.84375 Z M 6.296875 -4.65625 C 6.296875 -5.125 6.160156 -5.5 5.890625 -5.78125 C 5.617188 -6.070312 5.265625 -6.21875 4.828125 -6.21875 C 4.359375 -6.21875 3.972656 -6.082031 3.671875 -5.8125 C 3.378906 -5.550781 3.195312 -5.164062 3.125 -4.65625 Z M 6.296875 -4.65625 "/>
</g>
<g id="glyph-0-7">
<path d="M 8.390625 -9.890625 L 8.390625 -7.71875 C 7.828125 -7.96875 7.28125 -8.15625 6.75 -8.28125 C 6.21875 -8.414062 5.710938 -8.484375 5.234375 -8.484375 C 4.609375 -8.484375 4.144531 -8.394531 3.84375 -8.21875 C 3.539062 -8.050781 3.390625 -7.785156 3.390625 -7.421875 C 3.390625 -7.140625 3.488281 -6.921875 3.6875 -6.765625 C 3.894531 -6.617188 4.265625 -6.492188 4.796875 -6.390625 L 5.921875 -6.15625 C 7.054688 -5.925781 7.863281 -5.578125 8.34375 -5.109375 C 8.820312 -4.648438 9.0625 -3.992188 9.0625 -3.140625 C 9.0625 -2.015625 8.726562 -1.175781 8.0625 -0.625 C 7.394531 -0.0703125 6.375 0.203125 5 0.203125 C 4.351562 0.203125 3.703125 0.140625 3.046875 0.015625 C 2.398438 -0.109375 1.75 -0.289062 1.09375 -0.53125 L 1.09375 -2.75 C 1.75 -2.40625 2.378906 -2.144531 2.984375 -1.96875 C 3.585938 -1.789062 4.175781 -1.703125 4.75 -1.703125 C 5.320312 -1.703125 5.757812 -1.796875 6.0625 -1.984375 C 6.363281 -2.179688 6.515625 -2.457031 6.515625 -2.8125 C 6.515625 -3.132812 6.410156 -3.378906 6.203125 -3.546875 C 6.003906 -3.722656 5.59375 -3.878906 4.96875 -4.015625 L 3.953125 -4.25 C 2.929688 -4.46875 2.179688 -4.816406 1.703125 -5.296875 C 1.234375 -5.773438 1 -6.414062 1 -7.21875 C 1 -8.238281 1.328125 -9.019531 1.984375 -9.5625 C 2.640625 -10.113281 3.582031 -10.390625 4.8125 -10.390625 C 5.375 -10.390625 5.953125 -10.347656 6.546875 -10.265625 C 7.140625 -10.179688 7.753906 -10.054688 8.390625 -9.890625 Z M 8.390625 -9.890625 "/>
</g>
<g id="glyph-0-8">
<path d="M 3.84375 -9.828125 L 3.84375 -7.65625 L 6.375 -7.65625 L 6.375 -5.90625 L 3.84375 -5.90625 L 3.84375 -2.65625 C 3.84375 -2.300781 3.910156 -2.0625 4.046875 -1.9375 C 4.191406 -1.8125 4.476562 -1.75 4.90625 -1.75 L 6.15625 -1.75 L 6.15625 0 L 4.0625 0 C 3.09375 0 2.40625 -0.195312 2 -0.59375 C 1.601562 -1 1.40625 -1.6875 1.40625 -2.65625 L 1.40625 -5.90625 L 0.1875 -5.90625 L 0.1875 -7.65625 L 1.40625 -7.65625 L 1.40625 -9.828125 Z M 3.84375 -9.828125 "/>
</g>
<g id="glyph-0-9">
<path d="M 10.453125 -0.765625 C 9.796875 -0.441406 9.113281 -0.195312 8.40625 -0.03125 C 7.707031 0.125 6.984375 0.203125 6.234375 0.203125 C 4.523438 0.203125 3.175781 -0.269531 2.1875 -1.21875 C 1.195312 -2.175781 0.703125 -3.46875 0.703125 -5.09375 C 0.703125 -6.738281 1.207031 -8.03125 2.21875 -8.96875 C 3.226562 -9.914062 4.613281 -10.390625 6.375 -10.390625 C 7.050781 -10.390625 7.695312 -10.328125 8.3125 -10.203125 C 8.9375 -10.078125 9.523438 -9.882812 10.078125 -9.625 L 10.078125 -7.515625 C 9.515625 -7.835938 8.953125 -8.078125 8.390625 -8.234375 C 7.828125 -8.398438 7.257812 -8.484375 6.6875 -8.484375 C 5.644531 -8.484375 4.835938 -8.191406 4.265625 -7.609375 C 3.703125 -7.023438 3.421875 -6.1875 3.421875 -5.09375 C 3.421875 -4.007812 3.691406 -3.171875 4.234375 -2.578125 C 4.785156 -1.992188 5.5625 -1.703125 6.5625 -1.703125 C 6.84375 -1.703125 7.097656 -1.71875 7.328125 -1.75 C 7.566406 -1.789062 7.78125 -1.847656 7.96875 -1.921875 L 7.96875 -3.90625 L 6.359375 -3.90625 L 6.359375 -5.671875 L 10.453125 -5.671875 Z M 10.453125 -0.765625 "/>
</g>
<g id="glyph-0-10">
<path d="M 6.859375 -5.578125 C 6.648438 -5.671875 6.4375 -5.738281 6.21875 -5.78125 C 6.007812 -5.832031 5.796875 -5.859375 5.578125 -5.859375 C 4.953125 -5.859375 4.46875 -5.65625 4.125 -5.25 C 3.789062 -4.851562 3.625 -4.28125 3.625 -3.53125 L 3.625 0 L 1.171875 0 L 1.171875 -7.65625 L 3.625 -7.65625 L 3.625 -6.40625 C 3.9375 -6.90625 4.296875 -7.269531 4.703125 -7.5 C 5.109375 -7.726562 5.597656 -7.84375 6.171875 -7.84375 C 6.253906 -7.84375 6.34375 -7.835938 6.4375 -7.828125 C 6.53125 -7.828125 6.671875 -7.8125 6.859375 -7.78125 Z M 6.859375 -5.578125 "/>
</g>
<g id="glyph-0-11">
<path d="M 6.390625 -6.53125 L 6.390625 -10.640625 L 8.84375 -10.640625 L 8.84375 0 L 6.390625 0 L 6.390625 -1.109375 C 6.046875 -0.660156 5.671875 -0.328125 5.265625 -0.109375 C 4.859375 0.0976562 4.390625 0.203125 3.859375 0.203125 C 2.921875 0.203125 2.144531 -0.171875 1.53125 -0.921875 C 0.925781 -1.671875 0.625 -2.640625 0.625 -3.828125 C 0.625 -5.003906 0.925781 -5.96875 1.53125 -6.71875 C 2.144531 -7.46875 2.921875 -7.84375 3.859375 -7.84375 C 4.390625 -7.84375 4.859375 -7.734375 5.265625 -7.515625 C 5.671875 -7.304688 6.046875 -6.976562 6.390625 -6.53125 Z M 4.765625 -1.578125 C 5.296875 -1.578125 5.695312 -1.769531 5.96875 -2.15625 C 6.25 -2.539062 6.390625 -3.097656 6.390625 -3.828125 C 6.390625 -4.554688 6.25 -5.109375 5.96875 -5.484375 C 5.695312 -5.867188 5.296875 -6.0625 4.765625 -6.0625 C 4.253906 -6.0625 3.859375 -5.867188 3.578125 -5.484375 C 3.304688 -5.109375 3.171875 -4.554688 3.171875 -3.828125 C 3.171875 -3.097656 3.304688 -2.539062 3.578125 -2.15625 C 3.859375 -1.769531 4.253906 -1.578125 4.765625 -1.578125 Z M 4.765625 -1.578125 "/>
</g>
<g id="glyph-0-12">
<path d="M 7.484375 -1.859375 L 3.359375 -1.859375 L 2.71875 0 L 0.0625 0 L 3.84375 -10.203125 L 6.984375 -10.203125 L 10.765625 0 L 8.125 0 Z M 4.015625 -3.75 L 6.8125 -3.75 L 5.421875 -7.8125 Z M 4.015625 -3.75 "/>
</g>
<g id="glyph-0-13">
<path d="M 1.171875 -10.640625 L 3.625 -10.640625 L 3.625 0 L 1.171875 0 Z M 1.171875 -10.640625 "/>
</g>
<g id="glyph-0-14">
<path d="M 7.15625 -7.421875 L 7.15625 -5.5625 C 6.632812 -5.78125 6.128906 -5.941406 5.640625 -6.046875 C 5.148438 -6.160156 4.691406 -6.21875 4.265625 -6.21875 C 3.796875 -6.21875 3.445312 -6.15625 3.21875 -6.03125 C 3 -5.914062 2.890625 -5.738281 2.890625 -5.5 C 2.890625 -5.300781 2.972656 -5.148438 3.140625 -5.046875 C 3.304688 -4.941406 3.613281 -4.863281 4.0625 -4.8125 L 4.484375 -4.765625 C 5.742188 -4.597656 6.585938 -4.332031 7.015625 -3.96875 C 7.453125 -3.601562 7.671875 -3.03125 7.671875 -2.25 C 7.671875 -1.4375 7.367188 -0.820312 6.765625 -0.40625 C 6.160156 0 5.265625 0.203125 4.078125 0.203125 C 3.566406 0.203125 3.039062 0.160156 2.5 0.078125 C 1.96875 -0.00390625 1.414062 -0.125 0.84375 -0.28125 L 0.84375 -2.140625 C 1.332031 -1.898438 1.832031 -1.71875 2.34375 -1.59375 C 2.851562 -1.476562 3.375 -1.421875 3.90625 -1.421875 C 4.382812 -1.421875 4.742188 -1.488281 4.984375 -1.625 C 5.222656 -1.757812 5.34375 -1.957031 5.34375 -2.21875 C 5.34375 -2.4375 5.257812 -2.597656 5.09375 -2.703125 C 4.925781 -2.804688 4.597656 -2.890625 4.109375 -2.953125 L 3.671875 -3.015625 C 2.578125 -3.148438 1.8125 -3.398438 1.375 -3.765625 C 0.9375 -4.140625 0.71875 -4.703125 0.71875 -5.453125 C 0.71875 -6.265625 0.992188 -6.863281 1.546875 -7.25 C 2.109375 -7.644531 2.960938 -7.84375 4.109375 -7.84375 C 4.566406 -7.84375 5.039062 -7.804688 5.53125 -7.734375 C 6.03125 -7.671875 6.570312 -7.566406 7.15625 -7.421875 Z M 7.15625 -7.421875 "/>
</g>
<g id="glyph-0-15">
<path d="M 0.0625 -10.203125 L 9.46875 -10.203125 L 9.46875 -8.21875 L 6.09375 -8.21875 L 6.09375 0 L 3.453125 0 L 3.453125 -8.21875 L 0.0625 -8.21875 Z M 0.0625 -10.203125 "/>
</g>
<g id="glyph-0-16">
<path d="M 5.25 -1.578125 C 5.769531 -1.578125 6.164062 -1.769531 6.4375 -2.15625 C 6.71875 -2.539062 6.859375 -3.097656 6.859375 -3.828125 C 6.859375 -4.554688 6.71875 -5.109375 6.4375 -5.484375 C 6.164062 -5.867188 5.769531 -6.0625 5.25 -6.0625 C 4.726562 -6.0625 4.328125 -5.867188 4.046875 -5.484375 C 3.765625 -5.097656 3.625 -4.546875 3.625 -3.828125 C 3.625 -3.097656 3.765625 -2.539062 4.046875 -2.15625 C 4.328125 -1.769531 4.726562 -1.578125 5.25 -1.578125 Z M 3.625 -6.53125 C 3.957031 -6.976562 4.328125 -7.304688 4.734375 -7.515625 C 5.148438 -7.734375 5.625 -7.84375 6.15625 -7.84375 C 7.101562 -7.84375 7.878906 -7.46875 8.484375 -6.71875 C 9.085938 -5.96875 9.390625 -5.003906 9.390625 -3.828125 C 9.390625 -2.640625 9.085938 -1.671875 8.484375 -0.921875 C 7.878906 -0.171875 7.101562 0.203125 6.15625 0.203125 C 5.625 0.203125 5.148438 0.0976562 4.734375 -0.109375 C 4.328125 -0.328125 3.957031 -0.660156 3.625 -1.109375 L 3.625 0 L 1.171875 0 L 1.171875 -10.640625 L 3.625 -10.640625 Z M 3.625 -6.53125 "/>
</g>
<g id="glyph-0-17">
<path d="M 3.921875 -8.21875 L 3.921875 -1.984375 L 4.859375 -1.984375 C 5.929688 -1.984375 6.75 -2.25 7.3125 -2.78125 C 7.882812 -3.320312 8.171875 -4.097656 8.171875 -5.109375 C 8.171875 -6.117188 7.890625 -6.890625 7.328125 -7.421875 C 6.765625 -7.953125 5.941406 -8.21875 4.859375 -8.21875 Z M 1.28125 -10.203125 L 4.0625 -10.203125 C 5.613281 -10.203125 6.765625 -10.09375 7.515625 -9.875 C 8.273438 -9.65625 8.925781 -9.28125 9.46875 -8.75 C 9.945312 -8.289062 10.300781 -7.757812 10.53125 -7.15625 C 10.769531 -6.550781 10.890625 -5.867188 10.890625 -5.109375 C 10.890625 -4.335938 10.769531 -3.648438 10.53125 -3.046875 C 10.300781 -2.441406 9.945312 -1.910156 9.46875 -1.453125 C 8.925781 -0.921875 8.269531 -0.546875 7.5 -0.328125 C 6.738281 -0.109375 5.59375 0 4.0625 0 L 1.28125 0 Z M 1.28125 -10.203125 "/>
</g>
<g id="glyph-0-18">
<path d="M 4.8125 -6.09375 C 4.269531 -6.09375 3.859375 -5.894531 3.578125 -5.5 C 3.296875 -5.113281 3.15625 -4.554688 3.15625 -3.828125 C 3.15625 -3.085938 3.296875 -2.519531 3.578125 -2.125 C 3.859375 -1.738281 4.269531 -1.546875 4.8125 -1.546875 C 5.351562 -1.546875 5.765625 -1.738281 6.046875 -2.125 C 6.328125 -2.519531 6.46875 -3.085938 6.46875 -3.828125 C 6.46875 -4.554688 6.328125 -5.113281 6.046875 -5.5 C 5.765625 -5.894531 5.351562 -6.09375 4.8125 -6.09375 Z M 4.8125 -7.84375 C 6.132812 -7.84375 7.164062 -7.484375 7.90625 -6.765625 C 8.644531 -6.054688 9.015625 -5.078125 9.015625 -3.828125 C 9.015625 -2.566406 8.644531 -1.578125 7.90625 -0.859375 C 7.164062 -0.148438 6.132812 0.203125 4.8125 0.203125 C 3.5 0.203125 2.46875 -0.148438 1.71875 -0.859375 C 0.976562 -1.578125 0.609375 -2.566406 0.609375 -3.828125 C 0.609375 -5.078125 0.976562 -6.054688 1.71875 -6.765625 C 2.46875 -7.484375 3.5 -7.84375 4.8125 -7.84375 Z M 4.8125 -7.84375 "/>
</g>
<g id="glyph-0-19">
<path d="M 3.625 -1.109375 L 3.625 2.90625 L 1.171875 2.90625 L 1.171875 -7.65625 L 3.625 -7.65625 L 3.625 -6.53125 C 3.957031 -6.976562 4.328125 -7.304688 4.734375 -7.515625 C 5.148438 -7.734375 5.625 -7.84375 6.15625 -7.84375 C 7.101562 -7.84375 7.878906 -7.46875 8.484375 -6.71875 C 9.085938 -5.96875 9.390625 -5.003906 9.390625 -3.828125 C 9.390625 -2.640625 9.085938 -1.671875 8.484375 -0.921875 C 7.878906 -0.171875 7.101562 0.203125 6.15625 0.203125 C 5.625 0.203125 5.148438 0.0976562 4.734375 -0.109375 C 4.328125 -0.328125 3.957031 -0.660156 3.625 -1.109375 Z M 5.25 -6.0625 C 4.726562 -6.0625 4.328125 -5.867188 4.046875 -5.484375 C 3.765625 -5.097656 3.625 -4.546875 3.625 -3.828125 C 3.625 -3.097656 3.765625 -2.539062 4.046875 -2.15625 C 4.328125 -1.769531 4.726562 -1.578125 5.25 -1.578125 C 5.769531 -1.578125 6.164062 -1.769531 6.4375 -2.15625 C 6.71875 -2.539062 6.859375 -3.097656 6.859375 -3.828125 C 6.859375 -4.554688 6.71875 -5.109375 6.4375 -5.484375 C 6.164062 -5.867188 5.769531 -6.0625 5.25 -6.0625 Z M 5.25 -6.0625 "/>
</g>
<g id="glyph-0-20">
<path d="M 0.5 -7.65625 L 2.875 -7.65625 L 4.15625 -2.375 L 5.453125 -7.65625 L 7.5 -7.65625 L 8.78125 -2.4375 L 10.0625 -7.65625 L 12.453125 -7.65625 L 10.4375 0 L 7.765625 0 L 6.46875 -5.265625 L 5.1875 0 L 2.515625 0 Z M 0.5 -7.65625 "/>
</g>
<g id="glyph-0-21">
<path d="M 1.09375 -2.984375 L 1.09375 -7.65625 L 3.5625 -7.65625 L 3.5625 -6.890625 C 3.5625 -6.472656 3.554688 -5.953125 3.546875 -5.328125 C 3.546875 -4.703125 3.546875 -4.285156 3.546875 -4.078125 C 3.546875 -3.460938 3.5625 -3.019531 3.59375 -2.75 C 3.625 -2.476562 3.675781 -2.28125 3.75 -2.15625 C 3.851562 -2 3.984375 -1.875 4.140625 -1.78125 C 4.304688 -1.695312 4.492188 -1.65625 4.703125 -1.65625 C 5.210938 -1.65625 5.613281 -1.847656 5.90625 -2.234375 C 6.195312 -2.628906 6.34375 -3.175781 6.34375 -3.875 L 6.34375 -7.65625 L 8.796875 -7.65625 L 8.796875 0 L 6.34375 0 L 6.34375 -1.109375 C 5.976562 -0.660156 5.585938 -0.328125 5.171875 -0.109375 C 4.753906 0.0976562 4.300781 0.203125 3.8125 0.203125 C 2.925781 0.203125 2.25 -0.0664062 1.78125 -0.609375 C 1.320312 -1.148438 1.09375 -1.941406 1.09375 -2.984375 Z M 1.09375 -2.984375 "/>
</g>
<g id="glyph-0-22">
<path d="M 1.28125 -10.203125 L 3.921875 -10.203125 L 3.921875 -1.984375 L 8.53125 -1.984375 L 8.53125 0 L 1.28125 0 Z M 1.28125 -10.203125 "/>
</g>
<g id="glyph-0-23">
<path d="M 5.953125 -8.484375 C 5.148438 -8.484375 4.523438 -8.1875 4.078125 -7.59375 C 3.640625 -7 3.421875 -6.164062 3.421875 -5.09375 C 3.421875 -4.019531 3.640625 -3.1875 4.078125 -2.59375 C 4.523438 -2 5.148438 -1.703125 5.953125 -1.703125 C 6.753906 -1.703125 7.375 -2 7.8125 -2.59375 C 8.257812 -3.1875 8.484375 -4.019531 8.484375 -5.09375 C 8.484375 -6.164062 8.257812 -7 7.8125 -7.59375 C 7.375 -8.1875 6.753906 -8.484375 5.953125 -8.484375 Z M 5.953125 -10.390625 C 7.585938 -10.390625 8.867188 -9.921875 9.796875 -8.984375 C 10.734375 -8.046875 11.203125 -6.75 11.203125 -5.09375 C 11.203125 -3.445312 10.734375 -2.148438 9.796875 -1.203125 C 8.867188 -0.265625 7.585938 0.203125 5.953125 0.203125 C 4.316406 0.203125 3.03125 -0.265625 2.09375 -1.203125 C 1.164062 -2.148438 0.703125 -3.445312 0.703125 -5.09375 C 0.703125 -6.75 1.164062 -8.046875 2.09375 -8.984375 C 3.03125 -9.921875 4.316406 -10.390625 5.953125 -10.390625 Z M 5.953125 -10.390625 "/>
</g>
<g id="glyph-0-24">
<path d="M 0.421875 -10.203125 L 2.9375 -10.203125 L 4.703125 -2.796875 L 6.453125 -10.203125 L 8.984375 -10.203125 L 10.734375 -2.796875 L 12.5 -10.203125 L 15 -10.203125 L 12.59375 0 L 9.5625 0 L 7.71875 -7.765625 L 5.875 0 L 2.84375 0 Z M 0.421875 -10.203125 "/>
</g>
<g id="glyph-0-25">
<path d="M 7.359375 -7.421875 L 7.359375 -5.421875 C 7.023438 -5.648438 6.691406 -5.816406 6.359375 -5.921875 C 6.023438 -6.035156 5.675781 -6.09375 5.3125 -6.09375 C 4.632812 -6.09375 4.101562 -5.890625 3.71875 -5.484375 C 3.34375 -5.085938 3.15625 -4.535156 3.15625 -3.828125 C 3.15625 -3.109375 3.34375 -2.546875 3.71875 -2.140625 C 4.101562 -1.742188 4.632812 -1.546875 5.3125 -1.546875 C 5.695312 -1.546875 6.0625 -1.601562 6.40625 -1.71875 C 6.75 -1.832031 7.066406 -2.003906 7.359375 -2.234375 L 7.359375 -0.21875 C 6.972656 -0.0820312 6.582031 0.0195312 6.1875 0.09375 C 5.800781 0.164062 5.410156 0.203125 5.015625 0.203125 C 3.628906 0.203125 2.546875 -0.148438 1.765625 -0.859375 C 0.992188 -1.566406 0.609375 -2.554688 0.609375 -3.828125 C 0.609375 -5.085938 0.992188 -6.070312 1.765625 -6.78125 C 2.546875 -7.488281 3.628906 -7.84375 5.015625 -7.84375 C 5.410156 -7.84375 5.800781 -7.804688 6.1875 -7.734375 C 6.582031 -7.660156 6.972656 -7.554688 7.359375 -7.421875 Z M 7.359375 -7.421875 "/>
</g>
<g id="glyph-1-0">
<path d="M 4.78125 -8.84375 L 2.90625 -3.765625 L 6.671875 -3.765625 Z M 4 -10.203125 L 5.578125 -10.203125 L 9.46875 0 L 8.03125 0 L 7.09375 -2.625 L 2.5 -2.625 L 1.5625 0 L 0.109375 0 Z M 4 -10.203125 "/>
</g>
<g id="glyph-1-1">
<path d="M 2.53125 -1.15625 L 2.53125 2.90625 L 1.265625 2.90625 L 1.265625 -7.65625 L 2.53125 -7.65625 L 2.53125 -6.5 C 2.800781 -6.945312 3.132812 -7.28125 3.53125 -7.5 C 3.9375 -7.726562 4.421875 -7.84375 4.984375 -7.84375 C 5.910156 -7.84375 6.664062 -7.472656 7.25 -6.734375 C 7.832031 -5.992188 8.125 -5.023438 8.125 -3.828125 C 8.125 -2.617188 7.832031 -1.644531 7.25 -0.90625 C 6.664062 -0.164062 5.910156 0.203125 4.984375 0.203125 C 4.421875 0.203125 3.9375 0.09375 3.53125 -0.125 C 3.132812 -0.351562 2.800781 -0.695312 2.53125 -1.15625 Z M 6.8125 -3.828125 C 6.8125 -4.742188 6.617188 -5.460938 6.234375 -5.984375 C 5.859375 -6.515625 5.335938 -6.78125 4.671875 -6.78125 C 4.003906 -6.78125 3.476562 -6.515625 3.09375 -5.984375 C 2.71875 -5.460938 2.53125 -4.742188 2.53125 -3.828125 C 2.53125 -2.898438 2.71875 -2.171875 3.09375 -1.640625 C 3.476562 -1.117188 4.003906 -0.859375 4.671875 -0.859375 C 5.335938 -0.859375 5.859375 -1.117188 6.234375 -1.640625 C 6.617188 -2.171875 6.8125 -2.898438 6.8125 -3.828125 Z M 6.8125 -3.828125 "/>
</g>
<g id="glyph-1-2">
<path d="M 0.46875 -10.203125 L 1.859375 -10.203125 L 4 -1.578125 L 6.140625 -10.203125 L 7.703125 -10.203125 L 9.84375 -1.578125 L 11.984375 -10.203125 L 13.390625 -10.203125 L 10.828125 0 L 9.078125 0 L 6.9375 -8.859375 L 4.765625 0 L 3.015625 0 Z M 0.46875 -10.203125 "/>
</g>
<g id="glyph-1-3">
<path d="M 1.3125 -7.65625 L 2.578125 -7.65625 L 2.578125 0 L 1.3125 0 Z M 1.3125 -10.640625 L 2.578125 -10.640625 L 2.578125 -9.046875 L 1.3125 -9.046875 Z M 1.3125 -10.640625 "/>
</g>
<g id="glyph-1-4">
<path d="M 7.6875 -4.625 L 7.6875 0 L 6.421875 0 L 6.421875 -4.578125 C 6.421875 -5.304688 6.28125 -5.847656 6 -6.203125 C 5.71875 -6.566406 5.296875 -6.75 4.734375 -6.75 C 4.054688 -6.75 3.519531 -6.53125 3.125 -6.09375 C 2.726562 -5.664062 2.53125 -5.078125 2.53125 -4.328125 L 2.53125 0 L 1.265625 0 L 1.265625 -7.65625 L 2.53125 -7.65625 L 2.53125 -6.46875 C 2.832031 -6.925781 3.1875 -7.269531 3.59375 -7.5 C 4.007812 -7.726562 4.484375 -7.84375 5.015625 -7.84375 C 5.890625 -7.84375 6.550781 -7.566406 7 -7.015625 C 7.457031 -6.472656 7.6875 -5.675781 7.6875 -4.625 Z M 7.6875 -4.625 "/>
</g>
<g id="glyph-1-5">
<path d="M 6.359375 -6.5 L 6.359375 -10.640625 L 7.609375 -10.640625 L 7.609375 0 L 6.359375 0 L 6.359375 -1.15625 C 6.097656 -0.695312 5.765625 -0.351562 5.359375 -0.125 C 4.953125 0.09375 4.46875 0.203125 3.90625 0.203125 C 2.976562 0.203125 2.222656 -0.164062 1.640625 -0.90625 C 1.054688 -1.644531 0.765625 -2.617188 0.765625 -3.828125 C 0.765625 -5.023438 1.054688 -5.992188 1.640625 -6.734375 C 2.222656 -7.472656 2.976562 -7.84375 3.90625 -7.84375 C 4.46875 -7.84375 4.953125 -7.726562 5.359375 -7.5 C 5.765625 -7.28125 6.097656 -6.945312 6.359375 -6.5 Z M 2.078125 -3.828125 C 2.078125 -2.898438 2.265625 -2.171875 2.640625 -1.640625 C 3.023438 -1.117188 3.550781 -0.859375 4.21875 -0.859375 C 4.875 -0.859375 5.394531 -1.117188 5.78125 -1.640625 C 6.164062 -2.171875 6.359375 -2.898438 6.359375 -3.828125 C 6.359375 -4.742188 6.164062 -5.460938 5.78125 -5.984375 C 5.394531 -6.515625 4.875 -6.78125 4.21875 -6.78125 C 3.550781 -6.78125 3.023438 -6.515625 2.640625 -5.984375 C 2.265625 -5.460938 2.078125 -4.742188 2.078125 -3.828125 Z M 2.078125 -3.828125 "/>
</g>
<g id="glyph-1-6">
<path d="M 4.28125 -6.78125 C 3.613281 -6.78125 3.082031 -6.515625 2.6875 -5.984375 C 2.289062 -5.460938 2.09375 -4.742188 2.09375 -3.828125 C 2.09375 -2.910156 2.285156 -2.1875 2.671875 -1.65625 C 3.066406 -1.132812 3.601562 -0.875 4.28125 -0.875 C 4.957031 -0.875 5.488281 -1.132812 5.875 -1.65625 C 6.269531 -2.1875 6.46875 -2.910156 6.46875 -3.828125 C 6.46875 -4.734375 6.269531 -5.453125 5.875 -5.984375 C 5.488281 -6.515625 4.957031 -6.78125 4.28125 -6.78125 Z M 4.28125 -7.84375 C 5.375 -7.84375 6.234375 -7.484375 6.859375 -6.765625 C 7.484375 -6.054688 7.796875 -5.078125 7.796875 -3.828125 C 7.796875 -2.566406 7.484375 -1.578125 6.859375 -0.859375 C 6.234375 -0.148438 5.375 0.203125 4.28125 0.203125 C 3.1875 0.203125 2.328125 -0.148438 1.703125 -0.859375 C 1.078125 -1.578125 0.765625 -2.566406 0.765625 -3.828125 C 0.765625 -5.078125 1.078125 -6.054688 1.703125 -6.765625 C 2.328125 -7.484375 3.1875 -7.84375 4.28125 -7.84375 Z M 4.28125 -7.84375 "/>
</g>
<g id="glyph-1-7">
<path d="M 0.59375 -7.65625 L 1.84375 -7.65625 L 3.421875 -1.6875 L 4.984375 -7.65625 L 6.46875 -7.65625 L 8.046875 -1.6875 L 9.609375 -7.65625 L 10.859375 -7.65625 L 8.859375 0 L 7.375 0 L 5.734375 -6.28125 L 4.078125 0 L 2.59375 0 Z M 0.59375 -7.65625 "/>
</g>
</g>
</defs>
<path fill="none" stroke-width="2" stroke-linecap="butt" stroke-linejoin="round" stroke="rgb(0%, 0%, 0%)" stroke-opacity="1" stroke-miterlimit="10" d="M 0.00000762939 0.0000762939 L 162.000008 0.0000762939 L 162.000008 57.000076 L 0.00000762939 57.000076 Z M 0.00000762939 0.0000762939 Z M 0.00000762939 0.0000762939 " transform="matrix(1, 0, 0, 1, 199.632805, 211.312424)"/>
<g fill="rgb(0%, 0%, 0%)" fill-opacity="1">
<use xlink:href="#glyph-0-0" x="242.632812" y="242.3125"/>
<use xlink:href="#glyph-0-1" x="256.632812" y="242.3125"/>
<use xlink:href="#glyph-0-2" x="265.632812" y="242.3125"/>
<use xlink:href="#glyph-0-3" x="270.632812" y="242.3125"/>
<use xlink:href="#glyph-0-4" x="280.632812" y="242.3125"/>
<use xlink:href="#glyph-0-1" x="290.632812" y="242.3125"/>
<use xlink:href="#glyph-0-5" x="299.632812" y="242.3125"/>
<use xlink:href="#glyph-0-6" x="309.632812" y="242.3125"/>
</g>
<path fill="none" stroke-width="2" stroke-linecap="butt" stroke-linejoin="round" stroke="rgb(0%, 0%, 0%)" stroke-opacity="1" stroke-miterlimit="10" d="M 0.00000762939 41.000076 L 162.000008 41.000076 " transform="matrix(1, 0, 0, 1, 199.632805, 211.312424)"/>
<path fill="none" stroke-width="2" stroke-linecap="butt" stroke-linejoin="round" stroke="rgb(0%, 0%, 0%)" stroke-opacity="1" stroke-miterlimit="10" d="M 0.00000762939 49.000076 L 162.000008 49.000076 " transform="matrix(1, 0, 0, 1, 199.632805, 211.312424)"/>
<path fill="none" stroke-width="2" stroke-linecap="butt" stroke-linejoin="round" stroke="rgb(0%, 0%, 0%)" stroke-opacity="1" stroke-miterlimit="10" d="M 0.000137329 0.0000152588 L 162.000137 0.0000152588 L 162.000137 83.000015 L 0.000137329 83.000015 Z M 0.000137329 0.0000152588 Z M 0.000137329 0.0000152588 " transform="matrix(1, 0, 0, 1, 43.070175, 392.933578)"/>
<g fill="rgb(0%, 0%, 0%)" fill-opacity="1">
<use xlink:href="#glyph-0-7" x="87.070312" y="423.933594"/>
<use xlink:href="#glyph-0-8" x="97.070312" y="423.933594"/>
<use xlink:href="#glyph-0-1" x="104.070312" y="423.933594"/>
<use xlink:href="#glyph-0-8" x="113.070312" y="423.933594"/>
<use xlink:href="#glyph-0-6" x="120.070312" y="423.933594"/>
<use xlink:href="#glyph-0-9" x="129.070312" y="423.933594"/>
<use xlink:href="#glyph-0-10" x="140.070312" y="423.933594"/>
<use xlink:href="#glyph-0-2" x="147.070312" y="423.933594"/>
<use xlink:href="#glyph-0-11" x="152.070312" y="423.933594"/>
</g>
<path fill="none" stroke-width="2" stroke-linecap="butt" stroke-linejoin="round" stroke="rgb(0%, 0%, 0%)" stroke-opacity="1" stroke-miterlimit="10" d="M 0.000137329 41.000015 L 162.000137 41.000015 " transform="matrix(1, 0, 0, 1, 43.070175, 392.933578)"/>
<path fill="none" stroke-width="2" stroke-linecap="butt" stroke-linejoin="round" stroke="rgb(0%, 0%, 0%)" stroke-opacity="1" stroke-miterlimit="10" d="M 0.000137329 49.000015 L 162.000137 49.000015 " transform="matrix(1, 0, 0, 1, 43.070175, 392.933578)"/>
<path fill="none" stroke-width="2" stroke-linecap="butt" stroke-linejoin="round" stroke="rgb(0%, 0%, 0%)" stroke-opacity="1" stroke-miterlimit="10" d="M 0.000788879 0.0000152588 L 163.168758 0.0000152588 L 163.168758 70.000015 L 0.000788879 70.000015 Z M 0.000788879 0.0000152588 Z M 0.000788879 0.0000152588 " transform="matrix(1, 0, 0, 1, 273.085149, 556.48436)"/>
<g fill="rgb(0%, 0%, 0%)" fill-opacity="1">
<use xlink:href="#glyph-0-12" x="317.668945" y="587.484375"/>
<use xlink:href="#glyph-0-13" x="328.668945" y="587.484375"/>
<use xlink:href="#glyph-0-6" x="333.668945" y="587.484375"/>
<use xlink:href="#glyph-0-10" x="342.668945" y="587.484375"/>
<use xlink:href="#glyph-0-8" x="349.668945" y="587.484375"/>
<use xlink:href="#glyph-0-14" x="356.668945" y="587.484375"/>
<use xlink:href="#glyph-0-15" x="364.668945" y="587.484375"/>
<use xlink:href="#glyph-0-1" x="372.668945" y="587.484375"/>
<use xlink:href="#glyph-0-16" x="381.668945" y="587.484375"/>
</g>
<path fill="none" stroke-width="2" stroke-linecap="butt" stroke-linejoin="round" stroke="rgb(0%, 0%, 0%)" stroke-opacity="1" stroke-miterlimit="10" d="M 0.000788879 41.000015 L 163.168758 41.000015 " transform="matrix(1, 0, 0, 1, 273.085149, 556.48436)"/>
<path fill="none" stroke-width="2" stroke-linecap="butt" stroke-linejoin="round" stroke="rgb(0%, 0%, 0%)" stroke-opacity="1" stroke-miterlimit="10" d="M 0.000788879 49.000015 L 163.168758 49.000015 " transform="matrix(1, 0, 0, 1, 273.085149, 556.48436)"/>
<path fill="none" stroke-width="2" stroke-linecap="butt" stroke-linejoin="round" stroke="rgb(0%, 0%, 0%)" stroke-opacity="1" stroke-miterlimit="10" d="M 0.000137329 0.0000152588 L 162.000137 0.0000152588 L 162.000137 70.000015 L 0.000137329 70.000015 Z M 0.000137329 0.0000152588 Z M 0.000137329 0.0000152588 " transform="matrix(1, 0, 0, 1, 43.070175, 556.48436)"/>
<g fill="rgb(0%, 0%, 0%)" fill-opacity="1">
<use xlink:href="#glyph-0-17" x="61.070312" y="587.484375"/>
<use xlink:href="#glyph-0-10" x="73.070312" y="587.484375"/>
<use xlink:href="#glyph-0-18" x="80.070312" y="587.484375"/>
<use xlink:href="#glyph-0-19" x="90.070312" y="587.484375"/>
<use xlink:href="#glyph-0-17" x="100.070312" y="587.484375"/>
<use xlink:href="#glyph-0-18" x="112.070312" y="587.484375"/>
<use xlink:href="#glyph-0-20" x="122.070312" y="587.484375"/>
<use xlink:href="#glyph-0-3" x="135.070312" y="587.484375"/>
<use xlink:href="#glyph-0-0" x="145.070312" y="587.484375"/>
<use xlink:href="#glyph-0-6" x="159.070312" y="587.484375"/>
<use xlink:href="#glyph-0-3" x="168.070312" y="587.484375"/>
<use xlink:href="#glyph-0-21" x="178.070312" y="587.484375"/>
</g>
<path fill="none" stroke-width="2" stroke-linecap="butt" stroke-linejoin="round" stroke="rgb(0%, 0%, 0%)" stroke-opacity="1" stroke-miterlimit="10" d="M 0.000137329 41.000015 L 162.000137 41.000015 " transform="matrix(1, 0, 0, 1, 43.070175, 556.48436)"/>
<path fill="none" stroke-width="2" stroke-linecap="butt" stroke-linejoin="round" stroke="rgb(0%, 0%, 0%)" stroke-opacity="1" stroke-miterlimit="10" d="M 0.000137329 49.000015 L 162.000137 49.000015 " transform="matrix(1, 0, 0, 1, 43.070175, 556.48436)"/>
<path fill="none" stroke-width="2" stroke-linecap="butt" stroke-linejoin="round" stroke="rgb(0%, 0%, 0%)" stroke-opacity="1" stroke-miterlimit="10" d="M -0.00194931 0.0000152588 L 161.998051 0.0000152588 L 161.998051 70.000015 L -0.00194931 70.000015 Z M -0.00194931 0.0000152588 Z M -0.00194931 0.0000152588 " transform="matrix(1, 0, 0, 1, 459.197262, 556.48436)"/>
<g fill="rgb(0%, 0%, 0%)" fill-opacity="1">
<use xlink:href="#glyph-0-22" x="512.195312" y="587.484375"/>
<use xlink:href="#glyph-0-18" x="521.195312" y="587.484375"/>
<use xlink:href="#glyph-0-5" x="531.195312" y="587.484375"/>
<use xlink:href="#glyph-0-15" x="541.195312" y="587.484375"/>
<use xlink:href="#glyph-0-1" x="549.195312" y="587.484375"/>
<use xlink:href="#glyph-0-16" x="558.195312" y="587.484375"/>
</g>
<path fill="none" stroke-width="2" stroke-linecap="butt" stroke-linejoin="round" stroke="rgb(0%, 0%, 0%)" stroke-opacity="1" stroke-miterlimit="10" d="M -0.00194931 41.000015 L 161.998051 41.000015 " transform="matrix(1, 0, 0, 1, 459.197262, 556.48436)"/>
<path fill="none" stroke-width="2" stroke-linecap="butt" stroke-linejoin="round" stroke="rgb(0%, 0%, 0%)" stroke-opacity="1" stroke-miterlimit="10" d="M -0.00194931 49.000015 L 161.998051 49.000015 " transform="matrix(1, 0, 0, 1, 459.197262, 556.48436)"/>
<path fill="none" stroke-width="2" stroke-linecap="butt" stroke-linejoin="round" stroke="rgb(0%, 0%, 0%)" stroke-opacity="1" stroke-miterlimit="10" d="M -0.000773621 0.0000152588 L 150.96407 0.0000152588 L 150.96407 83.000015 L -0.000773621 83.000015 Z M -0.000773621 0.0000152588 Z M -0.000773621 0.0000152588 " transform="matrix(1, 0, 0, 1, 370.778117, 392.933578)"/>
<g fill="rgb(0%, 0%, 0%)" fill-opacity="1">
<use xlink:href="#glyph-0-23" x="389.259766" y="423.933594"/>
<use xlink:href="#glyph-0-19" x="401.259766" y="423.933594"/>
<use xlink:href="#glyph-0-6" x="411.259766" y="423.933594"/>
<use xlink:href="#glyph-0-10" x="420.259766" y="423.933594"/>
<use xlink:href="#glyph-0-1" x="427.259766" y="423.933594"/>
<use xlink:href="#glyph-0-8" x="436.259766" y="423.933594"/>
<use xlink:href="#glyph-0-18" x="443.259766" y="423.933594"/>
<use xlink:href="#glyph-0-10" x="453.259766" y="423.933594"/>
<use xlink:href="#glyph-0-4" x="460.259766" y="423.933594"/>
<use xlink:href="#glyph-0-1" x="470.259766" y="423.933594"/>
<use xlink:href="#glyph-0-3" x="479.259766" y="423.933594"/>
<use xlink:href="#glyph-0-6" x="489.259766" y="423.933594"/>
<use xlink:href="#glyph-0-13" x="498.259766" y="423.933594"/>
</g>
<path fill="none" stroke-width="2" stroke-linecap="butt" stroke-linejoin="round" stroke="rgb(0%, 0%, 0%)" stroke-opacity="1" stroke-miterlimit="10" d="M -0.000773621 41.000015 L 150.96407 41.000015 " transform="matrix(1, 0, 0, 1, 370.778117, 392.933578)"/>
<path fill="none" stroke-width="2" stroke-linecap="butt" stroke-linejoin="round" stroke="rgb(0%, 0%, 0%)" stroke-opacity="1" stroke-miterlimit="10" d="M -0.000773621 49.000015 L 150.96407 49.000015 " transform="matrix(1, 0, 0, 1, 370.778117, 392.933578)"/>
<path fill="none" stroke-width="2" stroke-linecap="butt" stroke-linejoin="round" stroke="rgb(0%, 0%, 0%)" stroke-opacity="1" stroke-miterlimit="10" d="M 0.00000762939 -0.0000152588 L 162.000008 -0.0000152588 L 162.000008 56.999985 L 0.00000762939 56.999985 Z M 0.00000762939 -0.0000152588 Z M 0.00000762939 -0.0000152588 " transform="matrix(1, 0, 0, 1, 199.632805, 84.332047)"/>
<g fill="rgb(0%, 0%, 0%)" fill-opacity="1">
<use xlink:href="#glyph-0-12" x="233.632812" y="115.332031"/>
<use xlink:href="#glyph-0-19" x="244.632812" y="115.332031"/>
<use xlink:href="#glyph-0-19" x="254.632812" y="115.332031"/>
<use xlink:href="#glyph-0-24" x="264.632812" y="115.332031"/>
<use xlink:href="#glyph-0-2" x="279.632812" y="115.332031"/>
<use xlink:href="#glyph-0-3" x="284.632812" y="115.332031"/>
<use xlink:href="#glyph-0-11" x="294.632812" y="115.332031"/>
<use xlink:href="#glyph-0-18" x="304.632812" y="115.332031"/>
<use xlink:href="#glyph-0-20" x="314.632812" y="115.332031"/>
</g>
<path fill="none" stroke-width="2" stroke-linecap="butt" stroke-linejoin="round" stroke="rgb(0%, 0%, 0%)" stroke-opacity="1" stroke-miterlimit="10" d="M 0.00000762939 40.999985 L 162.000008 40.999985 " transform="matrix(1, 0, 0, 1, 199.632805, 84.332047)"/>
<path fill="none" stroke-width="2" stroke-linecap="butt" stroke-linejoin="round" stroke="rgb(0%, 0%, 0%)" stroke-opacity="1" stroke-miterlimit="10" d="M 0.00000762939 48.999985 L 162.000008 48.999985 " transform="matrix(1, 0, 0, 1, 199.632805, 84.332047)"/>
<path fill-rule="nonzero" fill="rgb(0%, 0%, 0%)" fill-opacity="1" d="M 285.199219 161.332031 L 291.199219 151.332031 L 285.199219 141.332031 L 279.199219 151.332031 Z M 285.199219 161.332031 "/>
<path fill="none" stroke-width="2" stroke-linecap="butt" stroke-linejoin="round" stroke="rgb(0%, 0%, 0%)" stroke-opacity="1" stroke-miterlimit="10" d="M 0.0000152588 15.677923 L 6.000015 5.677923 L 0.0000152588 -4.322077 L -5.999985 5.677923 Z M 0.0000152588 15.677923 L 0.0000152588 65.658392 M -5.999985 50.658392 L 0.0000152588 65.658392 L 6.000015 50.658392 " transform="matrix(1, 0, 0, 1, 285.199203, 145.654108)"/>
<path fill-rule="nonzero" fill="rgb(0%, 0%, 0%)" fill-opacity="1" d="M 285.199219 161.332031 L 291.199219 151.332031 L 285.199219 141.332031 L 279.199219 151.332031 Z M 285.199219 161.332031 "/>
<path fill="none" stroke-width="2" stroke-linecap="butt" stroke-linejoin="round" stroke="rgb(0%, 0%, 0%)" stroke-opacity="1" stroke-miterlimit="10" d="M -9.999985 5.677923 L -3.999985 -4.322077 L -9.999985 -14.322077 L -15.999985 -4.322077 Z M -9.999985 5.677923 L -9.999985 55.658392 M -15.999985 40.658392 L -9.999985 55.658392 L -3.999985 40.658392 " transform="matrix(1, 0, 0, 1, 295.199203, 155.654108)"/>
<path fill-rule="nonzero" fill="rgb(0%, 0%, 0%)" fill-opacity="1" d="M 273.085938 288.3125 L 279.085938 278.3125 L 273.085938 268.3125 L 267.085938 278.3125 Z M 273.085938 288.3125 "/>
<path fill="none" stroke-width="2" stroke-linecap="butt" stroke-linejoin="round" stroke="rgb(0%, 0%, 0%)" stroke-opacity="1" stroke-miterlimit="10" d="M -7.589828 20.431829 L -1.589828 10.431829 L -7.589828 0.431829 L -13.589828 10.431829 Z M -7.589828 20.431829 L -7.589828 73.13886 L -156.605453 73.13886 L -156.605453 125.052923 M -162.605453 110.052923 L -156.605453 125.052923 L -150.605453 110.052923 " transform="matrix(1, 0, 0, 1, 280.675766, 267.880671)"/>
<path fill-rule="nonzero" fill="rgb(0%, 0%, 0%)" fill-opacity="1" d="M 296.585938 288.3125 L 302.585938 278.3125 L 296.585938 268.3125 L 290.585938 278.3125 Z M 296.585938 288.3125 "/>
<path fill="none" stroke-width="2" stroke-linecap="butt" stroke-linejoin="round" stroke="rgb(0%, 0%, 0%)" stroke-opacity="1" stroke-miterlimit="10" d="M 15.246109 18.939642 L 21.246109 8.939642 L 15.246109 -1.060358 L 9.246109 8.939642 Z M 15.246109 18.939642 L 15.246109 71.646673 L 164.92189 71.646673 L 164.92189 123.560735 M 158.92189 108.560735 L 164.92189 123.560735 L 170.92189 108.560735 " transform="matrix(1, 0, 0, 1, 281.339828, 269.372858)"/>
<path fill-rule="nonzero" fill="rgb(0%, 0%, 0%)" fill-opacity="1" d="M 124.070312 495.933594 L 130.070312 485.933594 L 124.070312 475.933594 L 118.070312 485.933594 Z M 124.070312 495.933594 "/>
<path fill="none" stroke-width="2" stroke-linecap="butt" stroke-linejoin="round" stroke="rgb(0%, 0%, 0%)" stroke-opacity="1" stroke-miterlimit="10" d="M -37.031258 31.845892 L -31.031258 21.845892 L -37.031258 11.845892 L -43.031258 21.845892 Z M -37.031258 31.845892 L -37.031258 92.396673 M -43.031258 77.396673 L -37.031258 92.396673 L -31.031258 77.396673 " transform="matrix(1, 0, 0, 1, 161.10157, 464.087702)"/>
<path fill-rule="nonzero" fill="rgb(0%, 0%, 0%)" fill-opacity="1" d="M 459.195312 495.933594 L 465.195312 485.933594 L 459.195312 475.933594 L 453.195312 485.933594 Z M 459.195312 495.933594 "/>
<path fill="none" stroke-width="2" stroke-linecap="butt" stroke-linejoin="round" stroke="rgb(0%, 0%, 0%)" stroke-opacity="1" stroke-miterlimit="10" d="M -0.207031 19.799017 L 5.792969 9.799017 L -0.207031 -0.200983 L -6.207031 9.799017 Z M -0.207031 19.799017 L -0.207031 45.349798 L 80.792969 45.349798 L 80.792969 80.349798 M 74.792969 65.349798 L 80.792969 80.349798 L 86.792969 65.349798 " transform="matrix(1, 0, 0, 1, 459.402344, 476.134577)"/>
<path fill-rule="nonzero" fill="rgb(0%, 0%, 0%)" fill-opacity="1" d="M 436.253906 495.933594 L 442.253906 485.933594 L 436.253906 475.933594 L 430.253906 485.933594 Z M 436.253906 495.933594 "/>
<path fill="none" stroke-width="2" stroke-linecap="butt" stroke-linejoin="round" stroke="rgb(0%, 0%, 0%)" stroke-opacity="1" stroke-miterlimit="10" d="M 18.449219 19.04511 L 24.449219 9.04511 L 18.449219 -0.95489 L 12.449219 9.04511 Z M 18.449219 19.04511 L 18.449219 44.595892 L -56.171875 44.595892 L -56.171875 79.595892 M -62.171875 64.595892 L -56.171875 79.595892 L -50.171875 64.595892 " transform="matrix(1, 0, 0, 1, 417.804688, 476.888483)"/>
<path fill-rule="nonzero" fill="rgb(100%, 100%, 100%)" fill-opacity="1" stroke-width="1" stroke-linecap="butt" stroke-linejoin="miter" stroke="rgb(0%, 0%, 0%)" stroke-opacity="1" stroke-miterlimit="10" d="M -1 -1 L -1 33 L 125 33 L 129 16.5 L 129 -1 "/>
<g fill="rgb(0%, 0%, 0%)" fill-opacity="1">
<use xlink:href="#glyph-0-25" x="8" y="21"/>
<use xlink:href="#glyph-0-13" x="16" y="21"/>
<use xlink:href="#glyph-0-14" x="21" y="21"/>
</g>
<g fill="rgb(0%, 0%, 0%)" fill-opacity="1">
<use xlink:href="#glyph-1-0" x="37" y="21"/>
<use xlink:href="#glyph-1-1" x="47" y="21"/>
<use xlink:href="#glyph-1-1" x="56" y="21"/>
<use xlink:href="#glyph-1-2" x="65" y="21"/>
<use xlink:href="#glyph-1-3" x="79" y="21"/>
<use xlink:href="#glyph-1-4" x="83" y="21"/>
<use xlink:href="#glyph-1-5" x="92" y="21"/>
<use xlink:href="#glyph-1-6" x="101" y="21"/>
<use xlink:href="#glyph-1-7" x="110" y="21"/>
</g>
</svg>
